<svg xmlns="http://www.w3.org/2000/svg" viewBox="0 0 128 128" fill="none">
	<!-- Constellation forming a "D" shape -->
	<!-- D-shape star nodes -->
	<circle cx="36" cy="20" r="4" fill="#fbbf24" />
	<circle cx="36" cy="44" r="3" fill="#e9d5ff" />
	<circle cx="36" cy="68" r="3" fill="#e9d5ff" />
	<circle cx="36" cy="92" r="3" fill="#e9d5ff" />
	<circle cx="36" cy="112" r="4" fill="#fbbf24" />
	<circle cx="64" cy="16" r="3.5" fill="#e9d5ff" />
	<circle cx="88" cy="28" r="3.5" fill="#e9d5ff" />
	<circle cx="98" cy="50" r="3.5" fill="#2dd4bf" />
	<circle cx="100" cy="76" r="3.5" fill="#2dd4bf" />
	<circle cx="88" cy="98" r="3.5" fill="#e9d5ff" />
	<circle cx="64" cy="112" r="3.5" fill="#e9d5ff" />
	<!-- D-shape connections (vertical bar) -->
	<line x1="36" y1="20" x2="36" y2="112" stroke="#a78bfa" stroke-width="2" opacity="0.5" />
	<!-- D-shape connections (curve) -->
	<line x1="36" y1="20" x2="64" y2="16" stroke="#a78bfa" stroke-width="1.5" opacity="0.5" />
	<line x1="64" y1="16" x2="88" y2="28" stroke="#a78bfa" stroke-width="1.5" opacity="0.5" />
	<line x1="88" y1="28" x2="98" y2="50" stroke="#a78bfa" stroke-width="1.5" opacity="0.5" />
	<line x1="98" y1="50" x2="100" y2="76" stroke="#a78bfa" stroke-width="1.5" opacity="0.5" />
	<line x1="100" y1="76" x2="88" y2="98" stroke="#a78bfa" stroke-width="1.5" opacity="0.5" />
	<line x1="88" y1="98" x2="64" y2="112" stroke="#a78bfa" stroke-width="1.5" opacity="0.5" />
	<line x1="64" y1="112" x2="36" y2="112" stroke="#a78bfa" stroke-width="1.5" opacity="0.5" />
	<!-- Scattered accent stars -->
	<circle cx="16" cy="36" r="1.2" fill="#fbbf24" opacity="0.3" />
	<circle cx="114" cy="64" r="1.5" fill="#fbbf24" opacity="0.35" />
	<circle cx="76" cy="64" r="1" fill="#e9d5ff" opacity="0.2" />
</svg>
