<svg xmlns="http://www.w3.org/2000/svg" viewBox="0 0 128 128" fill="none">
	<!-- Dream cloud with blinking cursor -->
	<defs>
		<linearGradient id="g5" x1="0" y1="0" x2="0" y2="1">
			<stop offset="0%" stop-color="#60a5fa" />
			<stop offset="100%" stop-color="#3b82f6" />
		</linearGradient>
	</defs>
	<path
		d="M30,82 C14,82 6,70 12,58 C8,44 22,32 36,36 C42,22 62,18 74,28 C84,20 102,24 106,40 C118,42 124,56 116,68 C122,80 114,90 100,86 L30,86 Z"
		fill="url(#g5)"
		opacity="0.9"
	/>
	<!-- Terminal prompt inside cloud -->
	<polyline
		points="36,60 48,68 36,76"
		stroke="#fff"
		stroke-width="4"
		stroke-linecap="round"
		stroke-linejoin="round"
		fill="none"
	/>
	<line
		x1="56"
		y1="74"
		x2="78"
		y2="74"
		stroke="#fff"
		stroke-width="4"
		stroke-linecap="round"
		opacity="0.8"
	/>
	<!-- Stars below cloud -->
	<circle cx="40" cy="104" r="2.5" fill="#fbbf24" opacity="0.5" />
	<circle cx="64" cy="110" r="2" fill="#fbbf24" opacity="0.4" />
	<circle cx="88" cy="106" r="3" fill="#fbbf24" opacity="0.6" />
</svg>
